<?xml version="1.0" standalone="no"?>
<!DOCTYPE svg PUBLIC "-//W3C//DTD SVG 20010904//EN"
 "http://www.w3.org/TR/2001/REC-SVG-20010904/DTD/svg10.dtd">
<svg version="1.0" xmlns="http://www.w3.org/2000/svg"
 width="617.000000pt" height="617.000000pt" viewBox="0 0 617.000000 617.000000"
 preserveAspectRatio="xMidYMid meet">
<metadata>
Created by potrace 1.16, written by Peter Selinger 2001-2019
</metadata>
<g transform="translate(0.000000,617.000000) scale(0.100000,-0.100000)"
fill="#000000" stroke="none">
<path d="M2935 4944 c-11 -3 -74 -19 -140 -35 -260 -66 -402 -131 -790 -362
-198 -118 -197 -118 -192 -123 7 -7 109 47 327 174 273 159 456 238 685 297
160 41 223 42 325 7 47 -17 132 -47 190 -67 235 -82 401 -160 573 -271 59 -38
145 -91 192 -118 87 -51 179 -121 189 -144 5 -11 -21 -13 -146 -8 -84 3 -160
6 -168 7 -21 1 -171 -11 -198 -17 -15 -3 -21 -1 -17 5 3 6 -5 13 -19 17 l-25
6 27 24 c70 61 -83 -14 -226 -111 -56 -39 -121 -80 -145 -92 -52 -27 -197 -74
-337 -109 -58 -14 -123 -30 -145 -36 -22 -5 -49 -11 -60 -14 -60 -11 -145 -38
-145 -45 0 -5 -6 -6 -13 -3 -22 8 -233 -33 -261 -51 -30 -20 -81 -93 -72 -102
3 -3 28 18 56 46 51 53 87 64 98 32 3 -10 0 -12 -12 -8 -13 5 -15 2 -10 -17 4
-16 0 -25 -12 -30 -14 -5 -15 -4 -5 8 9 11 9 16 0 22 -7 4 -9 3 -6 -3 3 -5 -3
-16 -14 -24 -11 -8 -39 -31 -62 -52 -23 -21 -49 -37 -57 -35 -8 2 -33 -15 -55
-36 -22 -22 -31 -33 -20 -25 19 13 19 13 6 -4 -9 -11 -18 -14 -24 -8 -18 18
-37 0 -37 -36 0 -28 -9 -43 -51 -84 -28 -27 -59 -54 -69 -59 -18 -10 -19 -9 0
32 25 60 34 108 20 108 -6 0 -10 -6 -7 -12 9 -27 -34 -126 -113 -258 -5 -8
-32 -58 -61 -110 -29 -52 -80 -142 -114 -200 -34 -58 -76 -133 -93 -167 -34
-67 -144 -218 -259 -356 -41 -48 -71 -92 -68 -97 3 -6 1 -10 -4 -10 -6 0 -11
-8 -11 -17 0 -15 -2 -16 -10 -3 -8 12 -10 12 -15 -2 -4 -9 -13 -14 -21 -11 -8
3 -14 0 -14 -6 0 -20 -58 -43 -79 -31 -11 5 -28 10 -39 10 -10 0 -29 9 -42 20
-13 11 -26 17 -29 14 -3 -4 0 -9 7 -11 6 -3 12 -9 12 -14 0 -4 -7 -5 -17 -2
-12 5 -14 3 -8 -7 19 -31 -1 -139 -37 -191 -21 -31 -32 -20 -52 51 -8 30 -25
89 -37 130 -19 67 -21 96 -20 275 3 335 20 724 36 835 29 186 37 210 110 317
80 116 331 368 494 496 105 82 199 166 171 151 -151 -77 -585 -481 -698 -651
-56 -83 -63 -101 -81 -190 -26 -127 -39 -254 -45 -433 -28 -740 -30 -678 41
-918 36 -121 37 -124 18 -134 -39 -21 -112 -106 -138 -159 -34 -70 -49 -163
-37 -235 5 -31 11 -59 13 -61 3 -2 7 43 9 99 7 139 32 202 109 282 36 36 62
56 68 51 15 -18 30 -74 21 -80 -5 -3 -4 -17 2 -31 9 -19 18 -24 34 -21 14 2
25 -2 28 -9 3 -8 10 -14 16 -14 6 0 8 6 4 13 -4 6 4 2 18 -10 26 -25 47 -31
31 -11 -6 7 -13 22 -16 33 -6 18 -5 17 9 -3 21 -28 29 -28 31 0 1 11 6 24 12
27 5 4 12 18 15 31 6 31 30 98 38 105 3 3 30 -3 60 -15 63 -23 119 -75 185
-172 25 -37 48 -66 50 -64 2 2 -3 21 -12 41 -8 21 -14 39 -12 41 2 2 14 -3 29
-10 14 -7 38 -18 54 -23 l28 -9 -57 -33 c-31 -18 -57 -37 -57 -42 0 -5 -10
-14 -22 -20 -30 -13 -84 -93 -102 -150 -17 -52 -28 -149 -15 -128 5 8 9 30 9
49 1 19 7 51 14 70 16 46 85 150 99 150 5 0 24 11 41 24 78 59 158 86 291 96
88 7 89 7 24 8 -80 2 -88 13 -58 80 56 130 207 349 347 505 148 166 415 410
602 552 36 27 71 55 78 62 7 7 21 17 30 22 9 5 15 12 12 15 -10 10 -222 -145
-345 -252 -372 -324 -711 -733 -775 -934 -9 -31 -18 -39 -47 -47 -65 -18 -190
36 -262 113 -38 42 -118 86 -156 86 -16 0 -25 6 -25 16 0 17 57 155 69 167 16
16 49 -58 56 -125 7 -62 26 -110 39 -97 3 3 1 22 -5 43 -6 22 -8 54 -5 72 5
26 0 42 -24 80 -16 26 -30 55 -30 63 0 30 81 176 128 232 63 75 114 137 132
164 130 190 239 380 368 646 29 59 44 79 72 93 46 22 127 99 178 168 22 30 58
64 79 75 21 11 54 29 73 40 197 112 253 144 277 162 38 28 140 65 265 96 148
37 335 93 393 117 28 11 82 40 120 64 113 69 259 92 647 100 316 7 308 10 428
-181 87 -140 146 -221 185 -257 l40 -37 0 -105 c-1 -118 16 -133 23 -21 7 99
-3 129 -61 195 -58 65 -145 186 -172 240 -49 95 -163 213 -223 229 -19 6 -52
25 -75 43 -63 51 -144 102 -217 137 -36 17 -103 58 -150 91 -108 76 -311 176
-465 230 -66 23 -163 58 -215 77 -73 27 -114 36 -175 39 -44 1 -89 1 -100 -2z"/>
<path d="M4796 3525 c14 -24 27 -66 30 -92 l4 -47 -38 43 c-42 48 -65 55 -217
66 -49 3 -130 11 -180 17 -49 7 -180 12 -290 12 -173 0 -210 -3 -270 -21 -38
-11 -155 -44 -260 -73 -104 -28 -221 -62 -260 -74 -38 -13 -111 -36 -162 -51
-51 -16 -91 -31 -89 -32 4 -4 168 40 213 58 15 6 132 37 260 69 127 33 249 67
270 76 53 22 323 30 531 15 89 -7 172 -14 184 -16 13 -2 57 -6 98 -10 41 -3
77 -9 80 -14 3 -4 19 -16 37 -26 60 -35 116 -183 149 -394 25 -156 30 -482 10
-636 -18 -134 -34 -197 -80 -299 -25 -56 -27 -58 -44 -42 -35 31 -32 16 6 -36
93 -128 119 -183 148 -304 20 -87 20 -255 -1 -334 -42 -164 -170 -335 -317
-424 -207 -127 -411 -170 -605 -130 -181 37 -321 139 -355 258 -6 23 -18 50
-26 61 -13 20 -13 20 -10 0 3 -20 4 -20 -127 -44 -58 -11 -417 -16 -446 -7 -8
2 -52 7 -98 10 -93 7 -158 20 -213 43 -27 11 -40 12 -50 4 -83 -70 -193 -118
-353 -153 -90 -19 -334 -16 -415 6 -207 55 -347 139 -429 256 -23 32 -41 60
-41 63 0 2 -7 21 -16 42 -14 35 -16 36 -34 20 -33 -30 -94 -41 -184 -34 -113
9 -179 40 -262 123 -35 35 -64 58 -64 51 0 -23 96 -110 158 -143 82 -44 196
-61 284 -43 35 7 67 13 72 14 5 1 23 -25 38 -57 62 -127 221 -240 424 -302 82
-26 102 -28 264 -28 145 0 191 4 269 22 116 27 214 71 263 119 24 24 43 34 55
30 10 -3 43 -14 73 -25 147 -54 476 -74 681 -43 147 23 156 22 170 -13 48
-122 235 -237 430 -266 160 -23 362 27 523 128 68 43 175 126 176 136 0 4 18
27 41 49 51 51 113 161 141 252 32 100 31 265 -3 390 l-24 90 126 36 c162 47
235 82 335 163 141 114 246 250 279 361 23 80 19 179 -10 269 -44 135 -110
262 -185 356 -145 182 -296 292 -541 394 -62 26 -67 31 -79 69 -15 53 -36 87
-55 87 -10 0 -7 -11 11 -45z m730 -675 c8 0 23 -21 35 -47 11 -27 25 -56 30
-66 5 -10 7 -22 4 -27 -4 -6 -2 -10 4 -10 13 0 49 -123 52 -175 3 -50 -10
-123 -22 -131 -5 -3 -9 -13 -9 -22 -1 -44 -77 -155 -102 -149 -7 2 -10 2 -6 0
12 -7 -11 -44 -45 -72 -52 -45 -65 -52 -104 -55 -21 -2 -56 -7 -77 -11 -28 -6
-37 -5 -32 4 4 6 22 11 41 11 21 0 35 6 39 16 10 27 7 36 -13 31 -26 -6 -65
48 -65 90 0 33 36 83 59 83 7 0 13 11 13 25 0 30 10 44 20 28 5 -8 13 -9 22
-3 13 8 13 10 -1 10 -25 0 -31 78 -7 91 15 8 16 13 6 29 -10 15 -10 22 0 32 6
6 12 29 12 50 0 27 4 38 15 38 14 0 32 60 26 88 -4 24 63 153 77 147 8 -3 20
-5 28 -5z"/>
<path d="M3869 2991 c-34 -39 -368 -200 -417 -201 -7 0 -11 -4 -7 -9 3 -6 24
-4 53 4 26 8 50 15 53 15 3 0 12 -35 19 -77 14 -89 78 -290 117 -367 41 -81
132 -213 170 -247 56 -49 96 -64 135 -52 l33 11 -39 1 c-31 1 -46 9 -81 44
-37 37 -44 50 -50 99 -13 100 10 145 91 183 42 20 62 24 93 19 35 -6 42 -11
52 -42 7 -20 10 -68 7 -116 -4 -72 -3 -78 8 -51 37 87 23 279 -32 444 -38 113
-117 275 -162 329 -26 32 -27 32 -43 13z m49 -231 c4 -135 -5 -191 -39 -234
-55 -69 -168 15 -248 184 -47 100 -46 103 62 154 50 24 112 57 137 74 l45 29
20 -41 c15 -32 20 -68 23 -166z"/>
<path d="M2940 2594 c-115 -55 -426 -176 -487 -189 -18 -3 -33 -10 -33 -15 0
-5 41 2 91 16 50 13 92 24 95 24 2 0 4 -15 4 -34 0 -112 68 -333 160 -521 45
-91 78 -141 135 -208 88 -101 131 -127 209 -127 47 0 60 4 90 31 44 38 56 79
56 197 0 104 -18 202 -62 342 -65 207 -122 331 -195 427 -19 25 -33 46 -31 47
42 26 88 57 88 61 0 7 6 10 -120 -51z m27 -101 c38 -106 54 -279 33 -354 -14
-51 -51 -102 -82 -113 -39 -14 -124 32 -167 89 -55 73 -92 178 -94 264 l-2 74
50 17 c28 10 86 34 130 53 44 20 87 35 95 34 8 -1 24 -29 37 -64z m205 -595
c59 -34 70 -62 69 -171 -1 -118 -48 -177 -141 -177 -35 0 -52 6 -73 25 -15 14
-27 30 -27 35 0 5 -7 16 -16 24 -8 9 -11 16 -5 16 6 0 11 10 11 23 0 18 -2 19
-10 7 -12 -18 -4 78 11 125 25 79 120 127 181 93z"/>
</g>
</svg>
